<svg width="19" height="18" viewBox="0 0 19 18" fill="none" xmlns="http://www.w3.org/2000/svg">
<path fill-rule="evenodd" clip-rule="evenodd" d="M13.667 0H5.66699C2.90557 0 0.666992 2.23858 0.666992 5V13C0.666992 15.7614 2.90557 18 5.66699 18H13.667C16.4284 18 18.667 15.7614 18.667 13V5C18.667 2.23858 16.4284 0 13.667 0ZM16.917 13C16.9115 14.7926 15.4596 16.2445 13.667 16.25H5.66699C3.87434 16.2445 2.42248 14.7926 2.41699 13V5C2.42248 3.20735 3.87434 1.75549 5.66699 1.75H13.667C15.4596 1.75549 16.9115 3.20735 16.917 5V13ZM14.417 5.25C14.9693 5.25 15.417 4.80228 15.417 4.25C15.417 3.69772 14.9693 3.25 14.417 3.25C13.8647 3.25 13.417 3.69772 13.417 4.25C13.417 4.80228 13.8647 5.25 14.417 5.25ZM9.66699 4.5C7.18171 4.5 5.16699 6.51472 5.16699 9C5.16699 11.4853 7.18171 13.5 9.66699 13.5C12.1523 13.5 14.167 11.4853 14.167 9C14.1697 7.8057 13.6964 6.65957 12.8519 5.81508C12.0074 4.97059 10.8613 4.49734 9.66699 4.5ZM6.91699 9C6.91699 10.5188 8.14819 11.75 9.66699 11.75C11.1858 11.75 12.417 10.5188 12.417 9C12.417 7.4812 11.1858 6.25 9.66699 6.25C8.14819 6.25 6.91699 7.4812 6.91699 9Z" fill="black"/>
</svg>
