<svg width="11" height="18" viewBox="0 0 11 18" fill="none" xmlns="http://www.w3.org/2000/svg">
<path d="M10.167 3H7.16699C6.61469 3 6.16699 3.44772 6.16699 4V7H10.167C10.2807 6.99748 10.3886 7.0504 10.4562 7.1419C10.5238 7.2334 10.5428 7.352 10.507 7.46L9.76699 9.66C9.69879 9.8619 9.51009 9.9984 9.29699 10H6.16699V17.5C6.16699 17.7761 5.94309 18 5.66699 18H3.16699C2.89085 18 2.66699 17.7761 2.66699 17.5V10H1.16699C0.890852 10 0.666992 9.7761 0.666992 9.5V7.5C0.666992 7.2239 0.890852 7 1.16699 7H2.66699V4C2.66699 1.79086 4.45789 0 6.66699 0H10.167C10.4431 0 10.667 0.22386 10.667 0.5V2.5C10.667 2.77614 10.4431 3 10.167 3Z" fill="black"/>
</svg>
