<svg width="19" height="18" viewBox="0 0 19 18" fill="none" xmlns="http://www.w3.org/2000/svg">
<path fill-rule="evenodd" clip-rule="evenodd" d="M2.66699 0H16.667C17.7716 0 18.667 0.89543 18.667 2V16C18.667 17.1046 17.7716 18 16.667 18H2.66699C1.56242 18 0.666992 17.1046 0.666992 16V2C0.666992 0.89543 1.56242 0 2.66699 0ZM5.66699 15C5.94313 15 6.16699 14.7761 6.16699 14.5V7.5C6.16699 7.2239 5.94313 7 5.66699 7H4.16699C3.89085 7 3.66699 7.2239 3.66699 7.5V14.5C3.66699 14.7761 3.89085 15 4.16699 15H5.66699ZM4.91699 6C4.08856 6 3.41699 5.32843 3.41699 4.5C3.41699 3.67157 4.08856 3 4.91699 3C5.74542 3 6.41699 3.67157 6.41699 4.5C6.41699 5.32843 5.74542 6 4.91699 6ZM15.167 15C15.4431 15 15.667 14.7761 15.667 14.5V9.9C15.6995 8.3108 14.5246 6.95452 12.947 6.76C11.844 6.65925 10.7753 7.1744 10.167 8.1V7.5C10.167 7.2239 9.94309 7 9.66699 7H8.16699C7.89089 7 7.66699 7.2239 7.66699 7.5V14.5C7.66699 14.7761 7.89089 15 8.16699 15H9.66699C9.94309 15 10.167 14.7761 10.167 14.5V10.75C10.167 9.9216 10.8386 9.25 11.667 9.25C12.4954 9.25 13.167 9.9216 13.167 10.75V14.5C13.167 14.7761 13.3909 15 13.667 15H15.167Z" fill="black"/>
</svg>
